HIERARCHY
ROOT Hips
{
	OFFSET 0.00000 0.00000 0.00000
	CHANNELS 6 Xposition Yposition Zposition Zrotation Yrotation Xrotation 
	JOINT LHipJoint
	{
		OFFSET 0 0 0
		CHANNELS 3 Zrotation Yrotation Xrotation
		JOINT LeftHip
		{
			OFFSET 1.75344 -1.53157 0.77399
			CHANNELS 3 Zrotation Yrotation Xrotation
			JOINT LeftKnee
			{
				OFFSET 2.25415 -6.19323 0.00000
				CHANNELS 3 Zrotation Yrotation Xrotation
				JOINT LeftAnkle
				{
					OFFSET 2.30342 -6.32861 0.00000
					CHANNELS 3 Zrotation Yrotation Xrotation
					JOINT LeftToe
					{
						OFFSET 0.10958 -0.30108 1.49206
						CHANNELS 3 Zrotation Yrotation Xrotation
						End Site
						{
							OFFSET 0.00000 -0.00000 0.77783
						}
					}
				}
			}
		}
	}
	JOINT RHipJoint
	{
		OFFSET 0 0 0
		CHANNELS 3 Zrotation Yrotation Xrotation
		JOINT RightHip
		{
			OFFSET -1.81912 -1.53156 0.77399
			CHANNELS 3 Zrotation Yrotation Xrotation
			JOINT RightKnee
			{
				OFFSET -2.22882 -6.12365 0.00000
				CHANNELS 3 Zrotation Yrotation Xrotation
				JOINT RightAnkle
				{
					OFFSET -2.21943 -6.09785 0.00000
					CHANNELS 3 Zrotation Yrotation Xrotation
					JOINT RightToe
					{
						OFFSET -0.18931 -0.52012 1.59379
						CHANNELS 3 Zrotation Yrotation Xrotation
						End Site
						{
							OFFSET -0.00000 -0.00000 0.84686
						}
					}
				}
			}
		}
	}
	JOINT lowerback
	{
		OFFSET 0 0 0
		CHANNELS 3 Zrotation Yrotation Xrotation
		JOINT Chest
		{
			OFFSET -0.00200 1.66634 -0.14248
			CHANNELS 3 Zrotation Yrotation Xrotation
			JOINT Chest2
			{
				OFFSET -0.00875 1.64542 0.09514
				CHANNELS 3 Zrotation Yrotation Xrotation
				JOINT lowerneck
				{
					OFFSET 0 0 0
					CHANNELS 3 Zrotation Yrotation Xrotation
					JOINT Neck
					{
						OFFSET 0.02257 1.59605 0.00839
						CHANNELS 3 Zrotation Yrotation Xrotation
						JOINT Head
						{
							OFFSET -0.10214 1.57530 -0.23335
							CHANNELS 3 Zrotation Yrotation Xrotation
							End Site
							{
								OFFSET -0.03588 1.60717 -0.08062
							}
						}
					}
				}
				JOINT LeftCollar
				{
					OFFSET 0 0 0
					CHANNELS 3 Zrotation Yrotation Xrotation
					JOINT LeftShoulder
					{
						OFFSET 2.54983 1.10186 0.40078
CHANNELS 3 Zrotation Xrotation Yrotation
						JOINT LeftElbow
						{
OFFSET 0 -4.288400 0.000000
CHANNELS 3 Zrotation Xrotation Yrotation
							JOINT LeftWrist
							{
OFFSET 0 -3.065520 -0.000000
CHANNELS 3 Zrotation Xrotation Yrotation
								JOINT lhand
								{
									OFFSET 0 0 0
CHANNELS 3 Zrotation Xrotation Yrotation
									JOINT LFingers
									{
OFFSET 0 -0.753040 0.000000
CHANNELS 3 Zrotation Xrotation Yrotation
										End Site
										{
OFFSET 0 -0.607120 0.000000
										}
									}
								}
								JOINT LThumb
								{
OFFSET 0 0.000000 0.000000
CHANNELS 3 Zrotation Xrotation Yrotation
									End Site
									{
OFFSET 0 -0.616390 0.616390
									}
								}
							}
						}
					}
				}
				JOINT RightCollar
				{
					OFFSET 0 0 0
					CHANNELS 3 Zrotation Yrotation Xrotation
					JOINT RightShoulder
					{
						OFFSET -2.60909 1.35448 0.21802
CHANNELS 3 Zrotation Xrotation Yrotation
						JOINT RightElbow
						{
OFFSET 0 -4.521720 -0.000000
CHANNELS 3 Zrotation Xrotation Yrotation
							JOINT RightWrist
							{
OFFSET 0 -2.891400 0.000000
CHANNELS 3 Zrotation Xrotation Yrotation
								JOINT rhand
								{
									OFFSET 0 0 0
CHANNELS 3 Zrotation Xrotation Yrotation
									JOINT RFingers
									{
OFFSET 0 -0.680540 0.000000
CHANNELS 3 Zrotation Xrotation Yrotation
										End Site
										{
OFFSET 0 -0.548670 0.000000
										}
									}
								}
								JOINT RThumb
								{
OFFSET 0 0.000000 0.000000
CHANNELS 3 Zrotation Xrotation Yrotation
									End Site
									{
OFFSET 0 -0.557050 0.557050
									}
								}
							}
						}
					}
				}
			}
		}
	}
}
MOTION
Frames: 4
Frame Time: 0.008333333333333333
9.125400 15.521400 22.507600 -179.012000 1.370400 178.665000 0.000000 0.000000 0.000000 -23.732800 -17.317900 0.758700 1.535000 7.821700 22.173700 0.833600 9.484900 -23.163900 4.525500 -12.828600 -38.730300 0.000000 0.000000 0.000000 25.826700 14.532100 5.954900 -0.670400 -5.235900 14.582700 0.609600 -19.538100 -22.122900 -0.000100 -0.068300 0.187600 1.828500 1.762400 8.380700 -0.082800 2.646200 -4.208000 -1.543900 1.197000 -9.093200 -5.539500 -1.688100 -5.654300 5.188800 -2.644000 11.977900 2.350100 -1.367800 4.650200 -0.000000 -0.000000 0.000000 3.655000 13.666100 -38.548700 20.494000 -31.233000 5.785300 4.234100 10.708100 36.110200 0.000000 0.000000 0.000000 -7.125000 0.000000 0.000000 -15.633600 -5.033600 -17.587600 -0.000000 -0.000000 0.000000 -4.045200 16.309900 44.343700 -21.685900 -32.620200 -6.415700 -0.158400 22.750200 53.631100 0.000000 0.000000 0.000000 7.125000 0.000000 -0.000000 74.386800 71.573700 -54.949200
9.124931 15.521400 22.507834 -179.005750 1.482829 178.672813 0.000000 0.000000 0.000000 -23.722331 -17.261099 0.736120 1.535938 7.824044 22.180966 0.843132 9.460055 -23.225623 4.491201 -12.786800 -38.575524 0.000000 0.000000 0.000000 25.821543 14.554602 5.941852 -0.669306 -5.231837 14.570980 0.616944 -19.493722 -21.960858 -0.000100 0.028035 -0.077105 1.841860 1.791621 8.385310 -0.085378 2.686437 -4.200890 -1.560385 1.215517 -9.085934 -5.537078 -1.694116 -5.609531 5.171689 -2.640640 11.843907 2.344865 -1.364753 4.601369 0.000000 0.000000 0.000000 3.618669 13.636332 -38.355796 20.511111 -31.253236 5.794207 3.880873 10.719038 35.926750 0.000000 0.000000 0.000000 -7.125000 0.000000 0.000000 -15.810174 -4.819289 -17.747142 0.000000 0.000000 0.000000 -3.978399 16.294977 44.047040 -21.668008 -32.599730 -6.406012 -0.913919 23.539159 53.706964 0.000000 0.000000 0.000000 7.125000 0.000000 0.000000 74.242728 71.859813 -55.157339
9.125081 15.521513 22.507956 -179.018065 1.531741 178.690190 0.000000 0.000000 0.000000 -23.725307 -17.212119 0.718717 1.532431 7.815530 22.155320 0.851482 9.407135 -23.252914 4.450601 -12.736955 -38.391605 0.000000 0.000000 0.000000 25.800409 14.564726 5.900393 -0.672432 -5.243696 14.605001 0.605610 -19.421608 -21.952013 -0.000213 0.088813 -0.244030 1.834629 1.812965 8.390144 -0.102303 2.712496 -4.198675 -1.578503 1.227901 -9.084913 -5.482390 -1.689105 -5.672783 5.164087 -2.632555 11.837399 2.333554 -1.356811 4.608854 0.000000 0.000000 0.000000 3.613676 13.615116 -38.198506 20.542905 -31.290856 5.810709 3.876067 10.593939 35.728054 0.000000 0.000000 0.000000 -7.125000 0.000000 0.000000 -15.802946 -4.628044 -17.689687 0.000000 0.000000 0.000000 -3.891400 16.314036 43.706834 -21.661031 -32.591806 -6.402287 -1.683278 24.418641 53.682460 0.000000 0.000000 0.000000 7.125000 0.000000 0.000000 73.799519 72.125503 -55.058352
9.125438 15.521738 22.508206 -179.036566 1.539075 178.700968 0.000000 0.000000 0.000000 -23.738532 -17.203630 0.711372 1.529362 7.808022 22.132562 0.851670 9.419822 -23.265515 4.420654 -12.700078 -38.255819 0.000000 0.000000 0.000000 25.776296 14.564330 5.862058 -0.676029 -5.257377 14.644180 0.586740 -19.352399 -22.030060 -0.000575 0.148287 -0.407370 1.830158 1.831041 8.408066 -0.130204 2.733973 -4.200288 -1.609772 1.237317 -9.095261 -5.380904 -1.686204 -5.739232 5.139821 -2.631883 11.848913 2.308911 -1.351919 4.621998 0.000000 0.000000 0.000000 3.618972 13.608539 -38.036453 20.568233 -31.320859 5.823870 4.106744 10.417815 35.564837 0.000000 0.000000 0.000000 -7.125000 0.000000 0.000000 -15.673130 -4.496424 -17.499596 0.000000 0.000000 0.000000 -3.787539 16.358993 43.337560 -21.675251 -32.608086 -6.409994 -2.169102 25.069913 53.683113 0.000000 0.000000 0.000000 7.125000 0.000000 0.000000 73.571589 72.297863 -55.049417
